<svg width="14" height="14" viewBox="0 0 14 14" fill="none" xmlns="http://www.w3.org/2000/svg">
<path d="M4.66663 12.6666V8.66663C4.66663 8.313 4.8071 7.97387 5.05715 7.72382C5.3072 7.47377 5.64634 7.33329 5.99996 7.33329H7.33329C7.68691 7.33329 8.02605 7.47377 8.2761 7.72382C8.52615 7.97387 8.66663 8.313 8.66663 8.66663V12.6666M1.99996 6.66663H0.666626L6.66663 0.666626L12.6666 6.66663H11.3333V11.3333C11.3333 11.6869 11.1928 12.0261 10.9428 12.2761C10.6927 12.5262 10.3536 12.6666 9.99996 12.6666H3.33329C2.97967 12.6666 2.64053 12.5262 2.39048 12.2761C2.14044 12.0261 1.99996 11.6869 1.99996 11.3333V6.66663Z" stroke="currentColor" stroke-width="1.33333" stroke-linecap="round" stroke-linejoin="round"/>
</svg>
