<svg width="39" height="49" viewBox="0 0 39 49" fill="none" xmlns="http://www.w3.org/2000/svg">
<path d="M38.3932 12.7979H12.7979C12.7979 5.73125 18.5271 0.00109187 25.5939 0H25.5971C29.1295 0 32.3309 1.43254 34.6447 3.7484C36.9606 6.06427 38.3932 9.26346 38.3932 12.7979Z" fill="url(#paint0_linear_1_1553)"/>
<path d="M37.3879 7.81478C36.7393 6.28288 35.8035 4.90494 34.645 3.74646C36.4292 8.05609 33.2627 12.797 28.597 12.797H12.7971C9.26262 12.797 6.06334 14.2274 3.7496 16.5454C1.43149 18.8602 0 22.0594 0 25.5927C0 32.6604 5.72813 38.3905 12.7982 38.3905H16.0695V48.8452L27.4592 35.3104V38.3916H38.3946V12.7959C38.3924 11.0282 38.0343 9.3445 37.3879 7.81478ZM15.5116 27.0973C14.6806 27.9282 13.3332 27.9282 12.5023 27.0973C11.6735 26.2664 11.6735 24.919 12.5023 24.0903C13.3332 23.2593 14.6806 23.2593 15.5116 24.0903C16.3436 24.919 16.3436 26.2664 15.5116 27.0973ZM24.4499 27.0973C23.6179 27.9282 22.2716 27.9282 21.4395 27.0973C20.6086 26.2664 20.6086 24.919 21.4395 24.0903C22.2716 23.2593 23.6179 23.2593 24.4499 24.0903C25.2798 24.919 25.2798 26.2664 24.4499 27.0973ZM33.3861 27.0973C32.5573 27.9282 31.2077 27.9282 30.3789 27.0973C29.548 26.2664 29.548 24.919 30.3789 24.0903C31.2077 23.2593 32.5573 23.2593 33.3861 24.0903C34.217 24.919 34.217 26.2664 33.3861 27.0973Z" fill="url(#paint1_linear_1_1553)"/>
<defs>
<linearGradient id="paint0_linear_1_1553" x1="12.7975" y1="6.39878" x2="38.3933" y2="6.39878" gradientUnits="userSpaceOnUse">
<stop stop-color="#FFB1CD"/>
<stop offset="1" stop-color="#FA87B2"/>
</linearGradient>
<linearGradient id="paint1_linear_1_1553" x1="19.1957" y1="40.2445" x2="19.1957" y2="13.5387" gradientUnits="userSpaceOnUse">
<stop offset="0.0419" stop-color="#FFE8F1"/>
<stop offset="1" stop-color="white"/>
</linearGradient>
</defs>
</svg>
