<svg width="161" height="49" viewBox="0 0 161 49" fill="none" xmlns="http://www.w3.org/2000/svg">
<path d="M62.3961 18.4978C61.9124 17.7204 61.254 17.1187 60.4219 16.6896C59.5899 16.2616 58.6498 16.0465 57.6026 16.0465H53.2951V18.4257H57.4585C58.0296 18.4257 58.5329 18.5414 58.9697 18.7718C59.4065 19.0011 59.7515 19.3254 60.0048 19.7469C60.2592 20.1661 60.387 20.663 60.387 21.234C60.387 21.8051 60.2592 22.3008 60.0048 22.7211C59.7515 23.1404 59.4065 23.4658 58.9697 23.6962C58.5329 23.9266 58.0296 24.0412 57.4585 24.0412H53.2951V26.4193H57.6015C58.6487 26.4193 59.5888 26.2064 60.4208 25.7773C61.2529 25.3493 61.9124 24.7466 62.395 23.9691C62.8787 23.1917 63.1211 22.2789 63.1211 21.2329C63.1222 20.1869 62.8798 19.2752 62.3961 18.4978ZM51.417 16.0465V32.6998H54.1522V16.0465H51.417Z" fill="black"/>
<path d="M74.7668 23.8051C74.2995 22.949 73.6574 22.2742 72.8407 21.7829C72.0239 21.2916 71.0838 21.0448 70.0214 21.0448C68.9273 21.0448 67.9326 21.3058 67.0361 21.8309C66.1397 22.354 65.4288 23.0637 64.9058 23.959C64.3828 24.8543 64.1218 25.8665 64.1218 26.9922C64.1218 28.1191 64.3861 29.1334 64.9178 30.0375C65.4496 30.9416 66.1713 31.6513 67.0831 32.1677C67.9959 32.682 69.0223 32.9408 70.1644 32.9408C71.0532 32.9408 71.8929 32.7737 72.6878 32.4407C73.4805 32.1088 74.1531 31.6163 74.7089 30.9667L73.0438 29.2764C72.6944 29.6739 72.2707 29.9741 71.7706 30.1805C71.2716 30.3869 70.7278 30.4895 70.1415 30.4895C69.4601 30.4895 68.8563 30.3421 68.3333 30.0495C67.8103 29.7558 67.4063 29.3387 67.1202 28.8004C66.9848 28.5427 66.88 28.2665 66.809 27.9684H75.3269C75.375 27.7293 75.4099 27.512 75.4339 27.3143C75.458 27.1145 75.4689 26.9213 75.4689 26.7302C75.4689 25.6372 75.2341 24.6622 74.7668 23.8051ZM66.8134 25.8272C66.8811 25.5575 66.975 25.3075 67.0951 25.0771C67.3637 24.5628 67.7448 24.161 68.2372 23.876C68.7275 23.591 69.3073 23.448 69.9744 23.448C70.6077 23.448 71.1428 23.5747 71.5795 23.8291C72.0152 24.0824 72.3526 24.4471 72.5906 24.9231C72.7249 25.1906 72.8254 25.4909 72.892 25.8272H66.8134Z" fill="black"/>
<path d="M98.1538 30.1208C97.6865 30.3184 97.1743 30.4178 96.6186 30.4178C95.9689 30.4178 95.3945 30.2726 94.8945 29.9778C94.3955 29.6841 94.0056 29.2801 93.7283 28.7636C93.451 28.2493 93.3123 27.6586 93.3123 26.9915C93.3123 26.3102 93.451 25.7151 93.7283 25.2074C94.0056 24.6997 94.3955 24.3 94.8945 24.0063C95.3945 23.7126 95.9689 23.5652 96.6186 23.5652C97.1743 23.5652 97.6854 23.6656 98.1538 23.8633C98.6211 24.0609 99.0229 24.359 99.3549 24.7553L101.068 23.0182C100.53 22.3849 99.8746 21.8957 99.1059 21.5551C98.3361 21.2144 97.5074 21.043 96.6186 21.043C95.4939 21.043 94.4741 21.3039 93.5612 21.8291C92.6495 22.3521 91.9321 23.0618 91.4091 23.9572C90.8861 24.8536 90.6229 25.8647 90.6229 26.9904C90.6229 28.1008 90.8861 29.1086 91.4091 30.0116C91.9321 30.9157 92.6506 31.6298 93.5612 32.1528C94.4741 32.6769 95.4928 32.9389 96.6186 32.9389C97.5074 32.9389 98.3361 32.7675 99.1059 32.4268C99.8746 32.0862 100.529 31.5981 101.068 30.9637L99.3549 29.2266C99.0229 29.6251 98.6211 29.9232 98.1538 30.1208Z" fill="black"/>
<path d="M112.621 23.8051C112.153 22.949 111.51 22.2742 110.692 21.7829C109.876 21.2916 108.935 21.0448 107.874 21.0448C106.779 21.0448 105.784 21.3058 104.888 21.8309C103.991 22.354 103.283 23.0637 102.76 23.959C102.236 24.8554 101.974 25.8665 101.974 26.9922C101.974 28.1191 102.239 29.1334 102.771 30.0375C103.302 30.9416 104.023 31.6513 104.936 32.1677C105.848 32.682 106.875 32.9408 108.017 32.9408C108.905 32.9408 109.746 32.7737 110.538 32.4407C111.331 32.1088 112.006 31.6163 112.561 30.9667L110.895 29.2764C110.546 29.6739 110.121 29.9741 109.622 30.1805C109.123 30.3869 108.58 30.4895 107.993 30.4895C107.311 30.4895 106.708 30.3421 106.185 30.0495C105.661 29.7558 105.257 29.3387 104.971 28.8004C104.835 28.5427 104.731 28.2665 104.66 27.9684H113.18C113.227 27.7293 113.262 27.512 113.286 27.3143C113.31 27.1145 113.323 26.9213 113.323 26.7302C113.323 25.6372 113.089 24.6622 112.621 23.8051ZM104.666 25.8272C104.733 25.5575 104.826 25.3075 104.948 25.0771C105.218 24.5628 105.598 24.161 106.09 23.876C106.581 23.591 107.161 23.448 107.827 23.448C108.462 23.448 108.998 23.5747 109.432 23.8291C109.869 24.0824 110.205 24.4471 110.445 24.9231C110.578 25.1906 110.678 25.4909 110.746 25.8272H104.666Z" fill="black"/>
<path d="M122.208 30.1208C121.739 30.3184 121.229 30.4178 120.673 30.4178C120.023 30.4178 119.448 30.2726 118.949 29.9778C118.449 29.6841 118.06 29.2801 117.783 28.7636C117.504 28.2493 117.366 27.6586 117.366 26.9915C117.366 26.3102 117.504 25.7151 117.783 25.2074C118.06 24.6997 118.449 24.3 118.949 24.0063C119.448 23.7126 120.023 23.5652 120.673 23.5652C121.229 23.5652 121.739 23.6656 122.208 23.8633C122.676 24.0609 123.076 24.359 123.409 24.7553L125.124 23.0182C124.584 22.3849 123.929 21.8957 123.16 21.5551C122.391 21.2144 121.562 21.043 120.674 21.043C119.547 21.043 118.529 21.3039 117.617 21.8291C116.704 22.3521 115.988 23.0618 115.462 23.9572C114.939 24.8536 114.678 25.8647 114.678 26.9904C114.678 28.1008 114.939 29.1086 115.462 30.0116C115.987 30.9157 116.703 31.6298 117.617 32.1528C118.529 32.6769 119.547 32.9389 120.674 32.9389C121.562 32.9389 122.389 32.7675 123.16 32.4268C123.929 32.0862 124.583 31.5981 125.124 30.9637L123.41 29.2266C123.076 29.6251 122.677 29.9232 122.208 30.1208Z" fill="#F9629A"/>
<path d="M136.875 23.1974C136.495 22.5237 135.972 21.9942 135.305 21.6142C134.639 21.2342 133.878 21.0432 133.021 21.0432C132.18 21.0432 131.423 21.2386 130.75 21.6273C130.31 21.8806 129.934 22.194 129.619 22.5685C129.45 22.7683 129.299 22.9856 129.166 23.2204C128.786 23.894 128.595 24.6693 128.595 25.5406L129.619 26.1116C129.619 25.6039 129.73 25.1519 129.952 24.7544C130.173 24.3592 130.483 24.0491 130.879 23.8274C131.276 23.6058 131.728 23.4944 132.236 23.4944C132.998 23.4944 133.619 23.7401 134.103 24.2325C134.587 24.7239 134.829 25.3506 134.829 26.1127V32.7022H137.445V25.5417C137.446 24.6518 137.256 23.8711 136.875 23.1974ZM127.002 15.5707V32.7H129.619V15.5707H127.002Z" fill="#F9629A"/>
<path d="M148.391 21.2817V22.557C148.064 22.176 147.671 21.8572 147.212 21.6049C146.538 21.2315 145.766 21.0448 144.891 21.0448C143.861 21.0448 142.931 21.3101 142.098 21.8419C141.263 22.3736 140.606 23.0866 140.124 23.9819C139.639 24.8795 139.396 25.8916 139.396 27.0174C139.396 28.1267 139.639 29.1301 140.124 30.0255C140.606 30.923 141.263 31.6327 142.098 32.1568C142.93 32.6787 143.861 32.9397 144.891 32.9397C145.766 32.9397 146.542 32.753 147.226 32.3828C147.68 32.1328 148.07 31.8205 148.391 31.4471V32.7016H151.007V21.2817H148.391ZM147.664 29.4904C147.069 30.1423 146.287 30.4655 145.321 30.4655C144.765 30.4655 144.269 30.3541 143.828 30.1281C142.747 30.9339 141.39 30.9579 140.925 30.9394C140.869 30.9361 140.849 30.864 140.896 30.8335C141.675 30.2864 142.23 29.5614 142.594 28.9631C142.561 28.9096 142.532 28.8572 142.501 28.8004C142.224 28.2763 142.084 27.6736 142.084 26.9911C142.084 26.3098 142.224 25.706 142.501 25.183C142.78 24.6589 143.16 24.2516 143.644 23.9579C144.126 23.6653 144.686 23.5201 145.321 23.5201C145.97 23.5201 146.538 23.6653 147.022 23.9579C147.505 24.2516 147.882 24.6589 148.15 25.183C148.422 25.706 148.557 26.3098 148.557 26.9911C148.557 28.0077 148.258 28.8397 147.664 29.4904Z" fill="#F9629A"/>
<path d="M155.646 16.5242V32.7014H158.264V16.5242H155.646ZM152.911 21.2815V23.6618H161V21.2815H152.911Z" fill="#F9629A"/>
<path d="M82.3455 32.9366C81.3148 32.9366 80.3834 32.6746 79.5503 32.1516C78.7171 31.6286 78.0598 30.9188 77.5761 30.0224C77.0924 29.1271 76.85 28.1236 76.85 27.0132C76.85 25.8875 77.0913 24.8764 77.5761 23.98C78.0598 23.0846 78.7182 22.3706 79.5503 21.8388C80.3834 21.3082 81.3148 21.0417 82.3455 21.0417C83.218 21.0417 83.991 21.2285 84.6647 21.6008C85.3384 21.9731 85.8735 22.4852 86.2709 23.1349C86.6673 23.7856 86.866 24.5226 86.866 25.347V28.6303C86.866 29.4546 86.6716 30.1927 86.2829 30.8424C85.8942 31.4932 85.3592 32.0042 84.6767 32.3765C83.9954 32.7499 83.218 32.9366 82.3455 32.9366ZM82.7736 30.4624C83.741 30.4624 84.5217 30.1371 85.1168 29.4874C85.7119 28.8377 86.0089 28.0046 86.0089 26.9892C86.0089 26.3079 85.8735 25.7041 85.6049 25.181C85.3352 24.658 84.9585 24.2497 84.4747 23.956C83.991 23.6622 83.4243 23.5159 82.7736 23.5159C82.1392 23.5159 81.5801 23.6622 81.0964 23.956C80.6127 24.2497 80.2316 24.658 79.9543 25.181C79.6769 25.7041 79.5382 26.3079 79.5382 26.9892C79.5382 27.6716 79.6769 28.2743 79.9543 28.7973C80.2316 29.3203 80.6116 29.7287 81.0964 30.0224C81.5801 30.3161 82.1392 30.4624 82.7736 30.4624ZM85.8429 32.6986V29.6293L86.2949 26.8462L85.8429 24.087V21.2798H88.4602V32.6986H85.8429Z" fill="black"/>
<path d="M38.3932 12.7979H12.7979C12.7979 5.73125 18.5271 0.00109187 25.5939 0H25.5971C29.1295 0 32.3309 1.43254 34.6447 3.7484C36.9606 6.06427 38.3932 9.26346 38.3932 12.7979Z" fill="url(#paint0_linear_1_1538)"/>
<path d="M37.3879 7.81478C36.7393 6.28288 35.8035 4.90494 34.645 3.74646C36.4292 8.05609 33.2627 12.797 28.597 12.797H12.7971C9.26262 12.797 6.06334 14.2274 3.7496 16.5454C1.43149 18.8602 0 22.0594 0 25.5927C0 32.6604 5.72813 38.3905 12.7982 38.3905H16.0695V48.8452L27.4592 35.3104V38.3916H38.3946V12.7959C38.3924 11.0282 38.0343 9.3445 37.3879 7.81478ZM15.5116 27.0973C14.6806 27.9282 13.3332 27.9282 12.5023 27.0973C11.6735 26.2664 11.6735 24.919 12.5023 24.0903C13.3332 23.2593 14.6806 23.2593 15.5116 24.0903C16.3436 24.919 16.3436 26.2664 15.5116 27.0973ZM24.4499 27.0973C23.6179 27.9282 22.2716 27.9282 21.4395 27.0973C20.6086 26.2664 20.6086 24.919 21.4395 24.0903C22.2716 23.2593 23.6179 23.2593 24.4499 24.0903C25.2798 24.919 25.2798 26.2664 24.4499 27.0973ZM33.3861 27.0973C32.5573 27.9282 31.2077 27.9282 30.3789 27.0973C29.548 26.2664 29.548 24.919 30.3789 24.0903C31.2077 23.2593 32.5573 23.2593 33.3861 24.0903C34.217 24.919 34.217 26.2664 33.3861 27.0973Z" fill="url(#paint1_linear_1_1538)"/>
<defs>
<linearGradient id="paint0_linear_1_1538" x1="12.7975" y1="6.39878" x2="38.3933" y2="6.39878" gradientUnits="userSpaceOnUse">
<stop stop-color="#FFB1CD"/>
<stop offset="1" stop-color="#FA87B2"/>
</linearGradient>
<linearGradient id="paint1_linear_1_1538" x1="19.1957" y1="40.2445" x2="19.1957" y2="13.5387" gradientUnits="userSpaceOnUse">
<stop offset="0.0419" stop-color="#FFE8F1"/>
<stop offset="1" stop-color="white"/>
</linearGradient>
</defs>
</svg>
